<svg width="16" height="16" viewBox="0 0 16 16" fill="black" xmlns="http://www.w3.org/2000/svg">
    <path d="M13.7801 5.75L14.4846 5.04375C14.6311 4.89687 14.6311 4.65937 14.4846 4.5125L13.9547 3.98125C13.8082 3.83438 13.5712 3.83438 13.4247 3.98125L12.7795 4.62813C11.81 3.76875 10.5849 3.19375 9.23204 3.04063V1.5H10.1049C10.3106 1.5 10.4789 1.33125 10.4789 1.125V0.375C10.4789 0.16875 10.3106 0 10.1049 0H6.86292C6.65718 0 6.48885 0.16875 6.48885 0.375V1.125C6.48885 1.33125 6.65718 1.5 6.86292 1.5H7.73576V3.04375C4.50628 3.41563 2 6.1625 2 9.5C2 13.0906 4.90217 16 8.4839 16C12.0656 16 14.9678 13.0906 14.9678 9.5C14.9678 8.10312 14.5282 6.80937 13.7801 5.75ZM8.4839 14.5C5.72824 14.5 3.49628 12.2625 3.49628 9.5C3.49628 6.7375 5.72824 4.5 8.4839 4.5C11.2396 4.5 13.4715 6.7375 13.4715 9.5C13.4715 12.2625 11.2396 14.5 8.4839 14.5ZM8.85797 11H8.10983C7.90409 11 7.73576 10.8313 7.73576 10.625V6.375C7.73576 6.16875 7.90409 6 8.10983 6H8.85797C9.06371 6 9.23204 6.16875 9.23204 6.375V10.625C9.23204 10.8313 9.06371 11 8.85797 11Z"/>
</svg>
